<svg xmlns="http://www.w3.org/2000/svg" xmlns:xlink="http://www.w3.org/1999/xlink" width="500" zoomAndPan="magnify" viewBox="0 0 375 374.999991" height="500" preserveAspectRatio="xMidYMid meet" version="1.0"><defs><g/><clipPath id="8f8dc63ca9"><path d="M 84.375 84.375 L 290.625 84.375 L 290.625 290.625 L 84.375 290.625 Z M 84.375 84.375 " clip-rule="nonzero"/></clipPath><clipPath id="178d86f893"><path d="M 187.5 290.625 C 159.96875 290.625 134.042969 279.910156 114.585938 260.414062 C 95.089844 240.957031 84.375 215.03125 84.375 187.5 C 84.375 159.96875 95.089844 134.042969 114.585938 114.585938 C 134.042969 95.089844 159.96875 84.375 187.5 84.375 C 215.03125 84.375 240.957031 95.089844 260.414062 114.585938 C 279.910156 134.082031 290.625 159.96875 290.625 187.5 C 290.625 215.03125 279.910156 240.957031 260.414062 260.414062 C 240.957031 279.910156 215.03125 290.625 187.5 290.625 Z M 187.5 90.558594 C 161.617188 90.558594 137.257812 100.65625 118.957031 118.957031 C 100.65625 137.257812 90.558594 161.617188 90.558594 187.5 C 90.558594 213.382812 100.65625 237.742188 118.957031 256.042969 C 137.257812 274.34375 161.617188 284.441406 187.5 284.441406 C 213.382812 284.441406 237.742188 274.34375 256.042969 256.042969 C 274.34375 237.742188 284.441406 213.382812 284.441406 187.5 C 284.441406 161.617188 274.34375 137.257812 256.042969 118.957031 C 237.742188 100.65625 213.382812 90.558594 187.5 90.558594 Z M 187.5 90.558594 " clip-rule="nonzero"/></clipPath></defs><g clip-path="url(#8f8dc63ca9)"><g clip-path="url(#178d86f893)"><path fill="#ffffff" d="M 84.375 84.375 L 290.625 84.375 L 290.625 290.625 L 84.375 290.625 Z M 84.375 84.375 " fill-opacity="1" fill-rule="nonzero"/></g></g><g fill="#ffffff" fill-opacity="1"><g transform="translate(147.819042, 285.435089)"><g><path d="M -18.453125 31.53125 C -14.242188 32.9375 -10.078125 33.640625 -5.953125 33.640625 C -1.828125 33.640625 2.488281 32.78125 7 31.0625 C 11.519531 29.351562 15.644531 26.664062 19.375 23 C 23.113281 19.34375 26.191406 13.851562 28.609375 6.53125 C 31.023438 -0.78125 32.234375 -9.421875 32.234375 -19.390625 L 32.234375 -146.4375 C 32.078125 -150.488281 30.554688 -153.953125 27.671875 -156.828125 C 24.796875 -159.710938 21.332031 -161.15625 17.28125 -161.15625 L 14.25 -161.15625 L 14.25 -163.5 L 65.390625 -163.5 L 65.390625 -161.15625 L 62.359375 -161.15625 C 58.316406 -161.15625 54.851562 -159.753906 51.96875 -156.953125 C 49.082031 -154.148438 47.5625 -150.644531 47.40625 -146.4375 L 47.40625 -18.6875 C 47.40625 -8.09375 45.769531 1.171875 42.5 9.109375 C 39.238281 17.046875 35.113281 23.039062 30.125 27.09375 C 20.78125 34.414062 10.425781 38.078125 -0.9375 38.078125 C -7.632812 38.078125 -13.785156 36.75 -19.390625 34.09375 Z M -18.453125 31.53125 "/></g></g></g></svg>